<svg width="44" height="34" viewBox="0 0 44 34" fill="none" xmlns="http://www.w3.org/2000/svg">
<path d="M34.65 23.3766H9.3775C9.075 23.3766 8.8275 23.6157 8.8275 23.9079L8.82063 27.0954C8.82063 27.3876 9.06813 27.6266 9.37063 27.6266H34.65C34.9525 27.6266 35.2 27.3876 35.2 27.0954V23.9079C35.2 23.6157 34.9525 23.3766 34.65 23.3766ZM34.65 29.7516H9.35688C9.05438 29.7516 8.80688 29.9907 8.80688 30.2829L8.8 33.4704C8.8 33.7626 9.0475 34.0016 9.35 34.0016H34.65C34.9525 34.0016 35.2 33.7626 35.2 33.4704V30.2829C35.2 29.9907 34.9525 29.7516 34.65 29.7516ZM34.65 17.0016H9.39125C9.08875 17.0016 8.84125 17.2407 8.84125 17.5329L8.83438 20.7204C8.83438 21.0126 9.08187 21.2516 9.38438 21.2516H34.65C34.9525 21.2516 35.2 21.0126 35.2 20.7204V17.5329C35.2 17.2407 34.9525 17.0016 34.65 17.0016ZM41.9719 7.77117L23.265 0.247343C22.8629 0.0862276 22.4319 0.0032959 21.9966 0.0032959C21.5613 0.0032959 21.1302 0.0862276 20.7281 0.247343L2.02813 7.77117C0.804375 8.26922 0 9.42469 0 10.713V33.4704C0 33.7626 0.2475 34.0016 0.55 34.0016H6.05C6.3525 34.0016 6.6 33.7626 6.6 33.4704V17.0016C6.6 15.8329 7.60375 14.8766 8.84125 14.8766H35.1587C36.3963 14.8766 37.4 15.8329 37.4 17.0016V33.4704C37.4 33.7626 37.6475 34.0016 37.95 34.0016H43.45C43.7525 34.0016 44 33.7626 44 33.4704V10.713C44 9.42469 43.1956 8.26922 41.9719 7.77117Z" fill="#006D7C"/>
</svg>
